# Blender v2.74 (sub 0) OBJ File: "thor's_hammer3.blend"
# www.blender.org
o pedistal
v -0.748830 -0.123777 0.748830
v -0.748830 -0.123777 -0.748830
v 0.748830 -0.123777 0.748830
v 0.748830 -0.123777 -0.748830
v -0.917126 -0.382857 0.917126
v -0.892665 -0.279909 0.892665
v -0.829572 -0.191514 0.829572
v -0.829572 -0.014980 0.553048
v -0.892665 -0.014980 0.297555
v -0.917126 -0.014980 -0.000000
v -0.892665 -0.014980 -0.297555
v -0.829572 -0.014980 -0.553048
v -0.829572 -0.191514 -0.829572
v -0.892665 -0.279909 -0.892665
v -0.917126 -0.382857 -0.917126
v -0.553048 -0.014980 -0.829572
v -0.297555 -0.014980 -0.892665
v 0.000000 -0.014980 -0.917126
v 0.297555 -0.014980 -0.892665
v 0.553048 -0.014980 -0.829572
v 0.829572 -0.191514 -0.829572
v 0.892665 -0.279909 -0.892665
v 0.917126 -0.382857 -0.917126
v 0.829572 -0.014980 -0.553048
v 0.892665 -0.014980 -0.297555
v 0.917126 -0.014980 0.000000
v 0.892665 -0.014980 0.297555
v 0.829572 -0.014980 0.553048
v 0.829572 -0.191514 0.829572
v 0.892665 -0.279909 0.892665
v 0.917126 -0.382857 0.917126
v 0.553048 -0.014980 0.829572
v 0.297555 -0.014980 0.892665
v -0.000000 -0.014980 0.917126
v -0.297555 -0.014980 0.892665
v -0.553048 -0.014980 0.829572
v 0.629143 -0.014980 0.629143
v 0.346641 -0.014980 0.693282
v -0.000000 -0.014980 0.719453
v -0.346641 -0.014980 0.693282
v -0.629143 -0.014980 0.629143
v 0.693282 -0.014980 0.346641
v 0.391064 -0.014980 0.391064
v -0.000000 -0.014980 0.410151
v -0.391064 -0.014980 0.391064
v -0.693282 -0.014980 0.346641
v 0.719453 -0.014980 0.000000
v 0.410151 -0.014980 0.000000
v -0.000000 -0.014980 -0.000000
v -0.410151 -0.014980 -0.000000
v -0.719453 -0.014980 -0.000000
v 0.693282 -0.014980 -0.346641
v 0.391064 -0.014980 -0.391064
v -0.000000 -0.014980 -0.410151
v -0.391064 -0.014980 -0.391064
v -0.693282 -0.014980 -0.346641
v 0.629143 -0.014980 -0.629143
v 0.346641 -0.014980 -0.693282
v -0.000000 -0.014980 -0.719453
v -0.346641 -0.014980 -0.693282
v -0.629143 -0.014980 -0.629143
v 0.629143 -0.165187 0.943715
v 0.693282 -0.262927 1.039923
v 0.719453 -0.382857 1.079179
v 0.346641 -0.142996 1.039923
v 0.391064 -0.247557 1.173192
v 0.410151 -0.382857 1.230454
v -0.000000 -0.133941 1.079179
v -0.000000 -0.240953 1.230454
v 0.000000 -0.382857 1.297012
v -0.346641 -0.142996 1.039923
v -0.391064 -0.247557 1.173192
v -0.410151 -0.382857 1.230454
v -0.629143 -0.165187 0.943715
v -0.693282 -0.262927 1.039923
v -0.719453 -0.382857 1.079179
v 0.943715 -0.165187 -0.629143
v 1.039923 -0.262927 -0.693282
v 1.079179 -0.382857 -0.719453
v 1.039923 -0.142996 -0.346641
v 1.173192 -0.247557 -0.391064
v 1.230454 -0.382857 -0.410151
v 1.079179 -0.133941 0.000000
v 1.230454 -0.240953 0.000000
v 1.297012 -0.382857 -0.000000
v 1.039923 -0.142996 0.346641
v 1.173192 -0.247557 0.391064
v 1.230454 -0.382857 0.410151
v -0.889741 -0.382857 -0.593161
v -1.014461 -0.382857 -0.338154
v 0.943715 -0.165187 0.629143
v 1.039923 -0.262927 0.693282
v 1.079179 -0.382857 0.719453
v -1.069336 -0.382857 -0.000000
v -1.014461 -0.382857 0.338154
v -0.629143 -0.165187 -0.943715
v -0.693282 -0.262927 -1.039923
v -0.719453 -0.382857 -1.079179
v -0.889741 -0.382857 0.593161
v 0.593161 -0.382857 -0.889741
v -0.346641 -0.142996 -1.039923
v -0.391064 -0.247557 -1.173192
v -0.410151 -0.382857 -1.230454
v 0.338154 -0.382857 -1.014461
v -0.000000 -0.382857 -1.069336
v 0.000000 -0.133941 -1.079179
v 0.000000 -0.240953 -1.230454
v -0.000000 -0.382857 -1.297012
v -0.338154 -0.382857 -1.014461
v -0.593161 -0.382857 -0.889741
v 0.346641 -0.142996 -1.039923
v 0.391064 -0.247557 -1.173192
v 0.410151 -0.382857 -1.230454
v 0.889741 -0.382857 0.593161
v 1.014461 -0.382857 0.338154
v 0.629143 -0.165187 -0.943715
v 0.693282 -0.262927 -1.039923
v 0.719453 -0.382857 -1.079179
v 1.069336 -0.382857 -0.000000
v 1.014461 -0.382857 -0.338154
v -0.943715 -0.165187 0.629143
v -1.039923 -0.262927 0.693282
v -1.079179 -0.382857 0.719453
v 0.889741 -0.382857 -0.593161
v -0.593161 -0.382857 0.889741
v -1.039923 -0.142996 0.346641
v -1.173192 -0.247557 0.391064
v -1.230454 -0.382857 0.410151
v -0.338154 -0.382857 1.014461
v -0.000000 -0.382857 1.069336
v -1.079179 -0.133941 -0.000000
v -1.230454 -0.240953 -0.000000
v -1.297012 -0.382857 -0.000000
v 0.338154 -0.382857 1.014461
v 0.593161 -0.382857 0.889741
v -1.039923 -0.142996 -0.346641
v -1.173192 -0.247557 -0.391064
v -1.230454 -0.382857 -0.410151
v 0.756135 -0.382857 0.756135
v 0.756135 -0.382857 -0.756135
v -0.943715 -0.165187 -0.629143
v -1.039923 -0.262927 -0.693282
v -1.079179 -0.382857 -0.719453
v -0.756135 -0.382857 -0.756135
v -0.756135 -0.382857 0.756135
v 0.000000 -3.099539 -0.407521
v 0.000000 -0.197972 -0.407521
v 0.079503 -3.099539 -0.399691
v 0.079503 -0.197972 -0.399691
v 0.155952 -3.099539 -0.376500
v 0.155952 -0.197972 -0.376500
v 0.226407 -3.099539 -0.338841
v 0.226407 -0.197972 -0.338841
v 0.288161 -3.099539 -0.288161
v 0.288161 -0.197972 -0.288161
v 0.338841 -3.099539 -0.226406
v 0.338841 -0.197972 -0.226406
v 0.376500 -3.099539 -0.155952
v 0.376500 -0.197972 -0.155952
v 0.399691 -3.099539 -0.079503
v 0.399691 -0.197972 -0.079503
v 0.407521 -3.099539 -0.000000
v 0.407521 -0.197972 -0.000000
v 0.399691 -3.099539 0.079503
v 0.399691 -0.197972 0.079503
v 0.376500 -3.099539 0.155951
v 0.376500 -0.197972 0.155951
v 0.338841 -3.099539 0.226406
v 0.338841 -0.197972 0.226406
v 0.288161 -3.099539 0.288161
v 0.288161 -0.197972 0.288161
v 0.226406 -3.099539 0.338841
v 0.226406 -0.197972 0.338841
v 0.155951 -3.099539 0.376500
v 0.155951 -0.197972 0.376500
v 0.079503 -3.099539 0.399691
v 0.079503 -0.197972 0.399691
v -0.000000 -3.099539 0.407521
v -0.000000 -0.197972 0.407521
v -0.079504 -3.099539 0.399691
v -0.079504 -0.197972 0.399691
v -0.155952 -3.099539 0.376500
v -0.155952 -0.197972 0.376500
v -0.226407 -3.099539 0.338841
v -0.226407 -0.197972 0.338841
v -0.288161 -3.099539 0.288161
v -0.288161 -0.197972 0.288161
v -0.338841 -3.099539 0.226406
v -0.338841 -0.197972 0.226406
v -0.376500 -3.099539 0.155951
v -0.376500 -0.197972 0.155951
v -0.399691 -3.099539 0.079503
v -0.399691 -0.197972 0.079503
v -0.407521 -3.099539 -0.000000
v -0.407521 -0.197972 -0.000000
v -0.399690 -3.099539 -0.079504
v -0.399690 -0.197972 -0.079504
v -0.376500 -3.099539 -0.155952
v -0.376500 -0.197972 -0.155952
v -0.338841 -3.099539 -0.226407
v -0.338841 -0.197972 -0.226407
v -0.288160 -3.099539 -0.288161
v -0.288160 -0.197972 -0.288161
v -0.226406 -3.099539 -0.338842
v -0.226406 -0.197972 -0.338842
v -0.155951 -3.099539 -0.376500
v -0.155951 -0.197972 -0.376500
v -0.079503 -3.099539 -0.399691
v -0.079503 -0.197972 -0.399691
vt 0.000000 0.000000
vt 0.476831 0.740213
vt 0.528100 0.766111
vt 0.471325 0.796963
vt 0.259783 0.476834
vt 0.233881 0.528102
vt 0.203033 0.471324
vt 0.296261 0.546565
vt 0.262804 0.591008
vt 0.350212 0.623466
vt 0.308853 0.657621
vt 0.415387 0.691079
vt 0.365503 0.715339
vt 0.421578 0.755745
vt 0.528666 0.203037
vt 0.578414 0.244255
vt 0.523160 0.259787
vt 0.471891 0.233889
vt 0.453431 0.296269
vt 0.408988 0.262815
vt 0.376532 0.350220
vt 0.308920 0.415392
vt 0.284662 0.365509
vt 0.244255 0.421580
vt 0.634488 0.284661
vt 0.584604 0.308921
vt 0.514359 0.351263
vt 0.429614 0.414554
vt 0.351258 0.485638
vt 0.691138 0.342379
vt 0.649779 0.376534
vt 0.585443 0.429618
vt 0.499996 0.500000
vt 0.414548 0.570382
vt 0.737187 0.408992
vt 0.703730 0.453435
vt 0.648733 0.514362
vt 0.570377 0.585446
vt 0.485632 0.648737
vt 0.766110 0.471898
vt 0.740208 0.523166
vt 0.691072 0.584608
vt 0.623459 0.649780
vt 0.546561 0.703731
vt 0.796958 0.528676
vt 0.755737 0.578420
vt 0.715329 0.634491
vt 0.657611 0.691137
vt 0.591003 0.737185
vt 0.466788 0.178902
vt 0.532370 0.165200
vt 0.462028 0.134780
vt 0.536003 0.128029
vt 0.457660 0.094182
vt 0.388199 0.210862
vt 0.369612 0.164121
vt 0.352685 0.120981
vt 0.342380 0.308863
vt 0.306754 0.265721
vt 0.273103 0.225105
vt 0.242362 0.187937
vt 0.237677 0.335265
vt 0.195235 0.308221
vt 0.156366 0.283683
vt 0.191386 0.406021
vt 0.149059 0.392915
vt 0.110417 0.380823
vt 0.165197 0.467617
vt 0.128025 0.463980
vt 0.093603 0.460498
vt 0.821100 0.466798
vt 0.834794 0.532383
vt 0.865224 0.462043
vt 0.871966 0.536020
vt 0.905825 0.457679
vt 0.789145 0.388203
vt 0.835891 0.369617
vt 0.879037 0.352691
vt 0.460510 0.906394
vt 0.448606 0.999900
vt 0.349209 0.977187
vt 0.757629 0.812063
vt 0.813847 0.884120
vt 0.681049 0.965438
vt 0.734285 0.306750
vt 0.774908 0.273094
vt 0.812084 0.242346
vt 0.716315 0.156348
vt 0.769455 0.081845
vt 0.884151 0.186121
vt 0.022834 0.349190
vt 0.664733 0.237670
vt 0.691777 0.195223
vt 0.120954 0.647309
vt 0.034519 0.681047
vt 0.000100 0.551297
vt 0.539481 0.093606
vt 0.448668 0.000123
vt 0.593969 0.191383
vt 0.607072 0.149054
vt 0.619161 0.110408
vt 0.906388 0.539502
vt 0.999891 0.551424
vt 0.977157 0.650810
vt 0.283676 0.843652
vt 0.380831 0.889592
vt 0.533204 0.821098
vt 0.467621 0.834800
vt 0.537963 0.865221
vt 0.463988 0.871971
vt 0.542331 0.905818
vt 0.611792 0.789138
vt 0.630379 0.835879
vt 0.647306 0.879019
vt 0.965472 0.318953
vt 0.693237 0.734279
vt 0.726888 0.774896
vt 0.081880 0.230543
vt 0.094166 0.542321
vt 0.762315 0.664735
vt 0.804756 0.691779
vt 0.843625 0.716317
vt 0.551385 0.000100
vt 0.650782 0.022812
vt 0.889574 0.619177
vt 0.918112 0.769457
vt 0.808606 0.593979
vt 0.850932 0.607085
vt 0.187908 0.757654
vt 0.230536 0.918155
vt 0.551323 0.999877
vt 0.178892 0.533202
vt 0.134767 0.537957
vt 0.210846 0.611797
vt 0.164100 0.630383
vt 0.186144 0.115880
vt 0.318942 0.034562
vt 0.265706 0.693250
vt 0.225083 0.726907
vt 0.335258 0.762330
vt 0.308214 0.804777
vt 0.000100 0.448576
vt 0.115840 0.813879
vt 0.406022 0.808617
vt 0.392919 0.850946
vt 0.999891 0.448703
vn 0.098000 0.000000 -0.995200
vn 0.290300 0.000000 -0.956900
vn 0.471400 0.000000 -0.881900
vn 0.634400 0.000000 -0.773000
vn 0.773000 0.000000 -0.634400
vn 0.881900 0.000000 -0.471400
vn 0.956900 0.000000 -0.290300
vn 0.995200 0.000000 -0.098000
vn 0.995200 0.000000 0.098000
vn 0.956900 0.000000 0.290300
vn 0.881900 0.000000 0.471400
vn 0.773000 0.000000 0.634400
vn 0.634400 0.000000 0.773000
vn 0.471400 0.000000 0.881900
vn 0.290300 0.000000 0.956900
vn 0.098000 0.000000 0.995200
vn -0.098000 0.000000 0.995200
vn -0.290300 0.000000 0.956900
vn -0.471400 0.000000 0.881900
vn -0.634400 0.000000 0.773000
vn -0.773000 0.000000 0.634400
vn -0.881900 0.000000 0.471400
vn -0.956900 0.000000 0.290300
vn -0.995200 0.000000 0.098000
vn -0.995200 0.000000 -0.098000
vn -0.956900 0.000000 -0.290300
vn -0.881900 0.000000 -0.471400
vn -0.773000 0.000000 -0.634400
vn -0.634400 0.000000 -0.773000
vn -0.471400 0.000000 -0.881900
vn -0.290300 0.000000 -0.956900
vn -0.098000 0.000000 -0.995200
vn -0.148100 0.977800 -0.148100
vn -0.280600 0.894100 -0.349000
vn -0.419300 0.805200 -0.419300
vn -0.148100 0.977800 0.148100
vn -0.349000 0.894100 0.280600
vn -0.419300 0.805200 0.419300
vn 0.000000 1.000000 0.000000
vn -0.344100 0.936800 0.062400
vn -0.325900 0.945400 0.000000
vn -0.344100 0.936800 -0.062400
vn -0.349000 0.894100 -0.280600
vn 0.419300 0.805200 0.419300
vn 0.349000 0.894100 0.280600
vn 0.148100 0.977800 0.148100
vn 0.280600 0.894100 0.349000
vn 0.062400 0.936800 0.344100
vn -0.062400 0.936800 0.344100
vn -0.280600 0.894100 0.349000
vn 0.344100 0.936800 0.062400
vn 0.325900 0.945400 0.000000
vn 0.344100 0.936800 -0.062400
vn 0.349000 0.894100 -0.280600
vn 0.148100 0.977800 -0.148100
vn 0.419300 0.805200 -0.419300
vn 0.280600 0.894100 -0.349000
vn 0.062400 0.936800 -0.344100
vn 0.000000 0.945400 -0.325900
vn -0.062400 0.936800 -0.344100
vn 0.368700 0.744500 0.556600
vn 0.435700 0.787600 0.435700
vn 0.436500 0.573200 0.693400
vn 0.604500 0.518700 0.604500
vn 0.449400 -0.538900 0.712400
vn 0.161800 0.778600 0.606300
vn 0.233300 0.613700 0.754300
vn 0.254800 -0.513300 0.819500
vn 0.000000 0.945400 0.325900
vn 0.000000 0.805300 0.592900
vn 0.000000 0.629500 0.776900
vn 0.000000 -0.502200 0.864700
vn -0.161800 0.778600 0.606300
vn -0.233300 0.613700 0.754300
vn -0.254800 -0.513300 0.819500
vn -0.368700 0.744500 0.556600
vn -0.436500 0.573200 0.693400
vn -0.449400 -0.538900 0.712400
vn -0.435700 0.787600 0.435700
vn -0.604500 0.518700 0.604500
vn -0.585500 -0.560700 0.585500
vn 0.556600 0.744500 -0.368700
vn 0.435700 0.787600 -0.435700
vn 0.693400 0.573200 -0.436500
vn 0.604500 0.518700 -0.604500
vn 0.712400 -0.538900 -0.449400
vn 0.606300 0.778600 -0.161800
vn 0.754300 0.613700 -0.233300
vn 0.819500 -0.513300 -0.254800
vn -0.585500 -0.560700 -0.585500
vn 0.000000 -1.000000 0.000000
vn 0.000000 -0.502200 -0.864700
vn 0.592900 0.805300 0.000000
vn 0.776900 0.629500 0.000000
vn 0.864700 -0.502200 0.000000
vn 0.819500 -0.513300 0.254800
vn 0.606300 0.778600 0.161800
vn 0.754300 0.613700 0.233300
vn -0.819500 -0.513300 0.254800
vn 0.585500 -0.560700 0.585500
vn 0.556600 0.744500 0.368700
vn 0.693400 0.573200 0.436500
vn 0.712400 -0.538900 0.449400
vn 0.585500 -0.560700 -0.585500
vn -0.819500 -0.513300 -0.254800
vn -0.712400 -0.538900 -0.449400
vn -0.368700 0.744500 -0.556600
vn -0.435700 0.787600 -0.435700
vn -0.436500 0.573200 -0.693400
vn -0.604500 0.518700 -0.604500
vn -0.449400 -0.538900 -0.712400
vn -0.161800 0.778600 -0.606300
vn -0.233300 0.613700 -0.754300
vn -0.254800 -0.513300 -0.819500
vn 0.000000 0.805300 -0.592900
vn 0.000000 0.629500 -0.776900
vn -0.712400 -0.538900 0.449400
vn 0.161800 0.778600 -0.606300
vn 0.233300 0.613700 -0.754300
vn 0.254800 -0.513300 -0.819500
vn 0.449400 -0.538900 -0.712400
vn 0.368700 0.744500 -0.556600
vn 0.436500 0.573200 -0.693400
vn -0.864700 -0.502200 0.000000
vn -0.556600 0.744500 0.368700
vn -0.693400 0.573200 0.436500
vn -0.606300 0.778600 0.161800
vn -0.754300 0.613700 0.233300
vn -0.592900 0.805300 0.000000
vn -0.776900 0.629500 0.000000
vn -0.606300 0.778600 -0.161800
vn -0.754300 0.613700 -0.233300
vn -0.556600 0.744500 -0.368700
vn -0.693400 0.573200 -0.436500
s off
f 147/1/1 149/1/1 148/1/1
f 149/1/2 151/1/2 150/1/2
f 151/1/3 153/1/3 152/1/3
f 153/1/4 155/1/4 154/1/4
f 155/1/5 157/1/5 156/1/5
f 157/1/6 159/1/6 158/1/6
f 159/1/7 161/1/7 160/1/7
f 161/1/8 163/1/8 162/1/8
f 163/1/9 165/1/9 164/1/9
f 165/1/10 167/1/10 166/1/10
f 167/1/11 169/1/11 168/1/11
f 169/1/12 171/1/12 170/1/12
f 171/1/13 173/1/13 172/1/13
f 173/1/14 175/1/14 174/1/14
f 175/1/15 177/1/15 176/1/15
f 177/1/16 179/1/16 178/1/16
f 179/1/17 181/1/17 180/1/17
f 181/1/18 183/1/18 182/1/18
f 183/1/19 185/1/19 184/1/19
f 185/1/20 187/1/20 186/1/20
f 187/1/21 189/1/21 188/1/21
f 189/1/22 191/1/22 190/1/22
f 191/1/23 193/1/23 192/1/23
f 193/1/24 195/1/24 194/1/24
f 195/1/25 197/1/25 196/1/25
f 197/1/26 199/1/26 198/1/26
f 199/1/27 201/1/27 200/1/27
f 201/1/28 203/1/28 202/1/28
f 203/1/29 205/1/29 204/1/29
f 205/1/30 207/1/30 206/1/30
f 207/1/31 209/1/31 208/1/31
f 209/1/32 147/1/32 146/1/32
f 146/1/1 147/1/1 148/1/1
f 148/1/2 149/1/2 150/1/2
f 150/1/3 151/1/3 152/1/3
f 152/1/4 153/1/4 154/1/4
f 154/1/5 155/1/5 156/1/5
f 156/1/6 157/1/6 158/1/6
f 158/1/7 159/1/7 160/1/7
f 160/1/8 161/1/8 162/1/8
f 162/1/9 163/1/9 164/1/9
f 164/1/10 165/1/10 166/1/10
f 166/1/11 167/1/11 168/1/11
f 168/1/12 169/1/12 170/1/12
f 170/1/13 171/1/13 172/1/13
f 172/1/14 173/1/14 174/1/14
f 174/1/15 175/1/15 176/1/15
f 176/1/16 177/1/16 178/1/16
f 178/1/17 179/1/17 180/1/17
f 180/1/18 181/1/18 182/1/18
f 182/1/19 183/1/19 184/1/19
f 184/1/20 185/1/20 186/1/20
f 186/1/21 187/1/21 188/1/21
f 188/1/22 189/1/22 190/1/22
f 190/1/23 191/1/23 192/1/23
f 192/1/24 193/1/24 194/1/24
f 194/1/25 195/1/25 196/1/25
f 196/1/26 197/1/26 198/1/26
f 198/1/27 199/1/27 200/1/27
f 200/1/28 201/1/28 202/1/28
f 202/1/29 203/1/29 204/1/29
f 204/1/30 205/1/30 206/1/30
f 206/1/31 207/1/31 208/1/31
f 208/1/32 209/1/32 146/1/32
s 1
f 61/2/33 16/3/34 2/4/35
f 41/5/36 8/6/37 1/7/38
f 46/8/39 9/9/40 8/6/37
f 51/10/39 10/11/41 9/9/40
f 51/10/39 56/12/39 11/13/42
f 56/12/39 61/2/33 12/14/43
f 3/15/44 28/16/45 37/17/46
f 32/18/47 37/17/46 38/19/39
f 33/20/48 38/19/39 39/21/39
f 39/21/39 40/22/39 35/23/49
f 40/22/39 41/5/36 36/24/50
f 28/16/45 27/25/51 42/26/39
f 37/17/46 42/26/39 43/27/39
f 38/19/39 43/27/39 44/28/39
f 44/28/39 45/29/39 40/22/39
f 45/29/39 46/8/39 41/5/36
f 27/25/51 26/30/52 47/31/39
f 42/26/39 47/31/39 48/32/39
f 43/27/39 48/32/39 49/33/39
f 49/33/39 50/34/39 45/29/39
f 50/34/39 51/10/39 46/8/39
f 25/35/53 52/36/39 47/31/39
f 52/36/39 53/37/39 48/32/39
f 53/37/39 54/38/39 49/33/39
f 49/33/39 54/38/39 55/39/39
f 50/34/39 55/39/39 56/12/39
f 24/40/54 57/41/55 52/36/39
f 57/41/55 58/42/39 53/37/39
f 58/42/39 59/43/39 54/38/39
f 54/38/39 59/43/39 60/44/39
f 55/39/39 60/44/39 61/2/33
f 4/45/56 20/46/57 57/41/55
f 20/46/57 19/47/58 58/42/39
f 19/47/58 18/48/59 59/43/39
f 59/43/39 18/48/59 17/49/60
f 60/44/39 17/49/60 16/3/34
f 3/15/44 32/18/47 62/50/61
f 29/51/62 62/50/61 63/52/63
f 30/53/64 63/52/63 64/54/65
f 32/18/47 33/20/48 65/55/66
f 62/50/61 65/55/66 66/56/67
f 63/52/63 66/56/67 67/57/68
f 33/20/48 34/58/69 68/59/70
f 65/55/66 68/59/70 69/60/71
f 66/56/67 69/60/71 70/61/72
f 35/23/49 71/62/73 68/59/70
f 71/62/73 72/63/74 69/60/71
f 72/63/74 73/64/75 70/61/72
f 36/24/50 74/65/76 71/62/73
f 74/65/76 75/66/77 72/63/74
f 75/66/77 76/67/78 73/64/75
f 1/7/38 7/68/79 74/65/76
f 7/68/79 6/69/80 75/66/77
f 6/69/80 5/70/81 76/67/78
f 4/45/56 24/40/54 77/71/82
f 21/72/83 77/71/82 78/73/84
f 22/74/85 78/73/84 79/75/86
f 24/40/54 25/35/53 80/76/87
f 77/71/82 80/76/87 81/77/88
f 78/73/84 81/77/88 82/78/89
f 15/79/90 144/80/91 89/81/91
f 108/82/92 105/83/91 109/84/91
f 25/35/53 26/30/52 83/85/93
f 80/76/87 83/85/93 84/86/94
f 81/77/88 84/86/94 85/87/95
f 88/88/96 115/89/91 119/90/91
f 73/64/75 76/67/78 125/91/91
f 27/25/51 86/92/97 83/85/93
f 86/92/97 87/93/98 84/86/94
f 87/93/98 88/88/96 85/87/95
f 128/94/99 95/95/91 99/96/91
f 31/97/100 64/54/65 135/98/91
f 28/16/45 91/99/101 86/92/97
f 91/99/101 92/100/102 87/93/98
f 92/100/102 93/101/103 88/88/96
f 23/102/104 140/103/91 100/104/91
f 138/105/105 143/106/106 89/81/91
f 3/15/44 29/51/62 91/99/101
f 29/51/62 30/53/64 92/100/102
f 30/53/64 31/97/100 93/101/103
f 2/4/35 16/3/34 96/107/107
f 13/108/108 96/107/107 97/109/109
f 14/110/110 97/109/109 98/111/111
f 16/3/34 17/49/60 101/112/112
f 96/107/107 101/112/112 102/113/113
f 97/109/109 102/113/113 103/114/114
f 98/111/111 103/114/114 109/84/91
f 85/87/95 119/90/91 120/115/91
f 17/49/60 18/48/59 106/116/115
f 101/112/112 106/116/115 107/117/116
f 102/113/113 107/117/116 108/82/92
f 70/61/72 73/64/75 129/118/91
f 5/70/81 123/119/117 99/96/91
f 19/47/58 111/120/118 106/116/115
f 111/120/118 112/121/119 107/117/116
f 112/121/119 113/122/120 108/82/92
f 31/97/100 139/123/91 114/124/91
f 118/125/121 100/104/91 104/126/91
f 20/46/57 116/127/122 111/120/118
f 116/127/122 117/128/123 112/121/119
f 117/128/123 118/125/121 113/122/120
f 133/129/124 138/105/105 90/130/91
f 15/79/90 98/111/111 110/131/91
f 4/45/56 21/72/83 116/127/122
f 21/72/83 22/74/85 117/128/123
f 22/74/85 23/102/104 118/125/121
f 1/7/38 8/6/37 121/132/125
f 7/68/79 121/132/125 122/133/126
f 6/69/80 122/133/126 123/119/117
f 8/6/37 9/9/40 126/134/127
f 121/132/125 126/134/127 127/135/128
f 122/133/126 127/135/128 128/94/99
f 79/75/86 82/78/89 120/115/91
f 70/61/72 130/136/91 134/137/91
f 9/9/40 10/11/41 131/138/129
f 126/134/127 131/138/129 132/139/130
f 127/135/128 132/139/130 133/129/124
f 113/122/120 104/126/91 105/83/91
f 93/101/103 114/124/91 115/89/91
f 11/13/42 136/140/131 131/138/129
f 136/140/131 137/141/132 132/139/130
f 137/141/132 138/105/105 133/129/124
f 5/70/81 145/142/91 125/91/91
f 133/129/124 94/143/91 95/95/91
f 12/14/43 141/144/133 136/140/131
f 141/144/133 142/145/134 137/141/132
f 142/145/134 143/106/106 138/105/105
f 23/102/104 79/75/86 124/146/91
f 67/57/68 134/137/91 135/98/91
f 2/4/35 13/108/108 141/144/133
f 13/108/108 14/110/110 142/145/134
f 14/110/110 15/79/90 143/106/106
f 12/14/43 61/2/33 2/4/35
f 36/24/50 41/5/36 1/7/38
f 41/5/36 46/8/39 8/6/37
f 46/8/39 51/10/39 9/9/40
f 10/11/41 51/10/39 11/13/42
f 11/13/42 56/12/39 12/14/43
f 32/18/47 3/15/44 37/17/46
f 33/20/48 32/18/47 38/19/39
f 34/58/69 33/20/48 39/21/39
f 34/58/69 39/21/39 35/23/49
f 35/23/49 40/22/39 36/24/50
f 37/17/46 28/16/45 42/26/39
f 38/19/39 37/17/46 43/27/39
f 39/21/39 38/19/39 44/28/39
f 39/21/39 44/28/39 40/22/39
f 40/22/39 45/29/39 41/5/36
f 42/26/39 27/25/51 47/31/39
f 43/27/39 42/26/39 48/32/39
f 44/28/39 43/27/39 49/33/39
f 44/28/39 49/33/39 45/29/39
f 45/29/39 50/34/39 46/8/39
f 26/30/52 25/35/53 47/31/39
f 47/31/39 52/36/39 48/32/39
f 48/32/39 53/37/39 49/33/39
f 50/34/39 49/33/39 55/39/39
f 51/10/39 50/34/39 56/12/39
f 25/35/53 24/40/54 52/36/39
f 52/36/39 57/41/55 53/37/39
f 53/37/39 58/42/39 54/38/39
f 55/39/39 54/38/39 60/44/39
f 56/12/39 55/39/39 61/2/33
f 24/40/54 4/45/56 57/41/55
f 57/41/55 20/46/57 58/42/39
f 58/42/39 19/47/58 59/43/39
f 60/44/39 59/43/39 17/49/60
f 61/2/33 60/44/39 16/3/34
f 29/51/62 3/15/44 62/50/61
f 30/53/64 29/51/62 63/52/63
f 31/97/100 30/53/64 64/54/65
f 62/50/61 32/18/47 65/55/66
f 63/52/63 62/50/61 66/56/67
f 64/54/65 63/52/63 67/57/68
f 65/55/66 33/20/48 68/59/70
f 66/56/67 65/55/66 69/60/71
f 67/57/68 66/56/67 70/61/72
f 34/58/69 35/23/49 68/59/70
f 68/59/70 71/62/73 69/60/71
f 69/60/71 72/63/74 70/61/72
f 35/23/49 36/24/50 71/62/73
f 71/62/73 74/65/76 72/63/74
f 72/63/74 75/66/77 73/64/75
f 36/24/50 1/7/38 74/65/76
f 74/65/76 7/68/79 75/66/77
f 75/66/77 6/69/80 76/67/78
f 21/72/83 4/45/56 77/71/82
f 22/74/85 21/72/83 78/73/84
f 23/102/104 22/74/85 79/75/86
f 77/71/82 24/40/54 80/76/87
f 78/73/84 77/71/82 81/77/88
f 79/75/86 78/73/84 82/78/89
f 143/106/106 15/79/90 89/81/91
f 103/114/114 108/82/92 109/84/91
f 80/76/87 25/35/53 83/85/93
f 81/77/88 80/76/87 84/86/94
f 82/78/89 81/77/88 85/87/95
f 85/87/95 88/88/96 119/90/91
f 129/118/91 73/64/75 125/91/91
f 26/30/52 27/25/51 83/85/93
f 83/85/93 86/92/97 84/86/94
f 84/86/94 87/93/98 85/87/95
f 123/119/117 128/94/99 99/96/91
f 139/123/91 31/97/100 135/98/91
f 27/25/51 28/16/45 86/92/97
f 86/92/97 91/99/101 87/93/98
f 87/93/98 92/100/102 88/88/96
f 118/125/121 23/102/104 100/104/91
f 90/130/91 138/105/105 89/81/91
f 28/16/45 3/15/44 91/99/101
f 91/99/101 29/51/62 92/100/102
f 92/100/102 30/53/64 93/101/103
f 13/108/108 2/4/35 96/107/107
f 14/110/110 13/108/108 97/109/109
f 15/79/90 14/110/110 98/111/111
f 96/107/107 16/3/34 101/112/112
f 97/109/109 96/107/107 102/113/113
f 98/111/111 97/109/109 103/114/114
f 110/131/91 98/111/111 109/84/91
f 82/78/89 85/87/95 120/115/91
f 101/112/112 17/49/60 106/116/115
f 102/113/113 101/112/112 107/117/116
f 103/114/114 102/113/113 108/82/92
f 130/136/91 70/61/72 129/118/91
f 145/142/91 5/70/81 99/96/91
f 18/48/59 19/47/58 106/116/115
f 106/116/115 111/120/118 107/117/116
f 107/117/116 112/121/119 108/82/92
f 93/101/103 31/97/100 114/124/91
f 113/122/120 118/125/121 104/126/91
f 19/47/58 20/46/57 111/120/118
f 111/120/118 116/127/122 112/121/119
f 112/121/119 117/128/123 113/122/120
f 94/143/91 133/129/124 90/130/91
f 144/80/91 15/79/90 110/131/91
f 20/46/57 4/45/56 116/127/122
f 116/127/122 21/72/83 117/128/123
f 117/128/123 22/74/85 118/125/121
f 7/68/79 1/7/38 121/132/125
f 6/69/80 7/68/79 122/133/126
f 5/70/81 6/69/80 123/119/117
f 121/132/125 8/6/37 126/134/127
f 122/133/126 121/132/125 127/135/128
f 123/119/117 122/133/126 128/94/99
f 124/146/91 79/75/86 120/115/91
f 67/57/68 70/61/72 134/137/91
f 126/134/127 9/9/40 131/138/129
f 127/135/128 126/134/127 132/139/130
f 128/94/99 127/135/128 133/129/124
f 108/82/92 113/122/120 105/83/91
f 88/88/96 93/101/103 115/89/91
f 10/11/41 11/13/42 131/138/129
f 131/138/129 136/140/131 132/139/130
f 132/139/130 137/141/132 133/129/124
f 76/67/78 5/70/81 125/91/91
f 128/94/99 133/129/124 95/95/91
f 11/13/42 12/14/43 136/140/131
f 136/140/131 141/144/133 137/141/132
f 137/141/132 142/145/134 138/105/105
f 140/103/91 23/102/104 124/146/91
f 64/54/65 67/57/68 135/98/91
f 12/14/43 2/4/35 141/144/133
f 141/144/133 13/108/108 142/145/134
f 142/145/134 14/110/110 143/106/106
