# Blender v2.67 (sub 0) OBJ File: 'tree.blend'
# www.blender.org
o floor_Plane
v 4.722574 -0.003180 5.712202
v -6.784485 -0.003179 5.712203
v 4.722574 8.440620 -5.344668
v -6.784484 8.440621 -5.344667
v 4.722574 -0.003180 -1.217107
v -6.784485 -0.003179 -1.217106
v -6.784485 4.218721 -5.344667
v 4.722574 4.218720 -5.344668
v 4.722574 -0.003180 -3.280887
v -6.784485 -0.003179 -3.280887
v -6.784485 2.107771 -5.344667
v 4.722574 2.107770 -5.344668
v -6.784485 -0.003179 5.561764
v 4.722574 -0.003180 5.561763
v 4.722574 8.340796 -5.344668
v -6.784484 8.340797 -5.344667
vt 1.642653 0.996043
vt 1.642653 0.013050
vt 1.659809 0.012973
vt -0.511959 0.013050
vt 0.298223 0.013050
vt 0.298223 0.996044
vt 0.897708 0.996044
vt 0.897708 0.013050
vt 1.150000 0.013050
vt 0.544877 0.013050
vt 0.544877 0.996044
vt -0.529939 0.013050
vt -0.511959 0.996044
vt 1.150000 0.996044
vt 1.659809 0.995966
vt -0.529939 0.996044
vn 0.000000 0.000000 1.000000
vn 0.000000 0.000000 0.999969
vn 0.000000 1.000000 0.000000
vn 0.000000 0.377453 0.926023
vn 0.000000 0.921690 0.387890
vn 0.000000 0.999969 0.000000
s 1
f 16/1/1 15/2/1 3/3/2
f 14/4/3 5/5/3 6/6/3
f 11/7/4 12/8/4 8/9/2
f 5/5/3 9/10/5 10/11/5
f 9/10/5 12/8/4 11/7/4
f 1/12/3 14/4/3 13/13/6
f 7/14/1 8/9/2 15/2/1
f 4/15/1 16/1/1 3/3/2
f 13/13/6 14/4/3 6/6/3
f 7/14/1 11/7/4 8/9/2
f 6/6/3 5/5/3 10/11/5
f 10/11/5 9/10/5 11/7/4
f 2/16/3 1/12/3 13/13/6
f 16/1/1 7/14/1 15/2/1
